<svg xmlns="http://www.w3.org/2000/svg" enable-background="new 0 0 512 512" viewBox="0 0 512 512" id="calculator"><path fill="#bfbfbf" d="M439.1,31.7v448.6c0,14.7-12,26.7-26.7,26.7H99.6c-14.7,0-26.7-12-26.7-26.7V31.7C72.8,17,84.8,5,99.6,5h312.9C427.2,5,439.1,17,439.1,31.7z"></path><path fill="#fff" d="M439.1,31.7v32c0-14.7-12-26.7-26.7-26.7H99.6c-14.7,0-26.7,12-26.7,26.7v-32C72.8,17,84.8,5,99.6,5h312.9C427.2,5,439.1,17,439.1,31.7z" opacity=".4"></path><path d="M439.1,448.3v32c0,14.7-12,26.7-26.7,26.7H99.6c-14.7,0-26.7-12-26.7-26.7v-32c0,14.7,12,26.7,26.7,26.7h312.9C427.2,475,439.1,463,439.1,448.3z" opacity=".1"></path><path fill="#333" d="M412.4,512H99.6c-17.5,0-31.7-14.2-31.7-31.7V31.7C67.8,14.2,82.1,0,99.6,0h312.9c17.5,0,31.7,14.2,31.7,31.7v448.6C444.1,497.8,429.9,512,412.4,512z M99.6,10c-12,0-21.7,9.7-21.7,21.7v448.6c0,12,9.7,21.7,21.7,21.7h312.9c12,0,21.7-9.7,21.7-21.7V31.7c0-12-9.7-21.7-21.7-21.7H99.6z"></path><path fill="#83cafa" d="M407.1,47.7v91c0,5.9-4.8,10.7-10.7,10.7H115.6c-5.9,0-10.7-4.8-10.7-10.7v-91c0-5.9,4.8-10.7,10.7-10.7h280.9C402.3,37,407.1,41.9,407.1,47.7z"></path><g opacity=".4"><polygon fill="#fff" points="214.3 37 164.2 149.4 126.7 149.4 176.7 37"></polygon><polygon fill="#fff" points="325.3 37 275.3 149.4 186.7 149.4 236.8 37"></polygon><polygon fill="#fff" points="385.3 37 335.3 149.4 297.7 149.4 347.8 37"></polygon></g><path fill="#333" d="M396.4,154.4H115.6c-8.6,0-15.7-7-15.7-15.7v-91c0-8.6,7-15.7,15.7-15.7h280.9c8.6,0,15.7,7,15.7,15.7v91C412.1,147.4,405.1,154.4,396.4,154.4z M115.6,42c-3.1,0-5.7,2.5-5.7,5.7v91c0,3.1,2.5,5.7,5.7,5.7h280.9c3.1,0,5.7-2.5,5.7-5.7v-91c0-3.1-2.5-5.7-5.7-5.7C396.4,42,115.6,42,115.6,42z"></path><path fill="#fff" d="M184.3 409.2v55.1c0 5.9-4.8 10.7-10.7 10.7h-58c-5.9 0-10.7-4.8-10.7-10.7v-55.1c0-5.9 4.8-10.7 10.7-10.7h58C179.5 398.5 184.3 403.3 184.3 409.2zM184.3 300.6v55.1c0 5.9-4.8 10.7-10.7 10.7h-58c-5.9 0-10.7-4.8-10.7-10.7v-55.1c0-5.9 4.8-10.7 10.7-10.7h58C179.5 290 184.3 294.8 184.3 300.6zM295.7 409.2v55.1c0 5.9-4.8 10.7-10.7 10.7H227c-5.9 0-10.7-4.8-10.7-10.7v-55.1c0-5.9 4.8-10.7 10.7-10.7H285C290.9 398.5 295.7 403.3 295.7 409.2z"></path><path fill="#fede58" d="M407.1,192.1v55.1c0,5.9-4.8,10.7-10.7,10.7h-58c-5.9,0-10.7-4.8-10.7-10.7v-55.1c0-5.9,4.8-10.7,10.7-10.7h58C402.3,181.4,407.1,186.3,407.1,192.1z"></path><path fill="#e56c63" d="M407.1,300.6v163.6c0,5.9-4.8,10.7-10.7,10.7h-58c-5.9,0-10.7-4.8-10.7-10.7V300.6c0-5.9,4.8-10.7,10.7-10.7h58C402.3,290,407.1,294.8,407.1,300.6z"></path><path fill="#fff" d="M184.3 192.1v55.1c0 5.9-4.8 10.7-10.7 10.7h-58c-5.9 0-10.7-4.8-10.7-10.7v-55.1c0-5.9 4.8-10.7 10.7-10.7h58C179.5 181.4 184.3 186.3 184.3 192.1zM295.7 192.1v55.1c0 5.9-4.8 10.7-10.7 10.7H227c-5.9 0-10.7-4.8-10.7-10.7v-55.1c0-5.9 4.8-10.7 10.7-10.7H285C290.9 181.4 295.7 186.3 295.7 192.1zM295.7 300.6v55.1c0 5.9-4.8 10.7-10.7 10.7H227c-5.9 0-10.7-4.8-10.7-10.7v-55.1c0-5.9 4.8-10.7 10.7-10.7H285C290.9 290 295.7 294.8 295.7 300.6z"></path><path fill="#fff" d="M184.3 409.2v24.2c0-5.9-4.8-10.7-10.7-10.7h-58c-5.9 0-10.7 4.8-10.7 10.7v-24.2c0-5.9 4.8-10.7 10.7-10.7h58C179.5 398.5 184.3 403.3 184.3 409.2zM184.3 300.7v24.2c0-5.9-4.8-10.7-10.7-10.7h-58c-5.9 0-10.7 4.8-10.7 10.7v-24.2c0-5.9 4.8-10.7 10.7-10.7h58C179.5 290 184.3 294.8 184.3 300.7zM295.7 409.2v24.2c0-5.9-4.8-10.7-10.7-10.7H227c-5.9 0-10.7 4.8-10.7 10.7v-24.2c0-5.9 4.8-10.7 10.7-10.7H285C290.9 398.5 295.7 403.3 295.7 409.2zM407.1 192.1v24.1c0-5.8-4.8-10.7-10.7-10.7h-58c-5.9 0-10.7 4.9-10.7 10.7v-24.1c0-5.9 4.8-10.7 10.7-10.7h58C402.3 181.5 407.1 186.3 407.1 192.1zM407.1 300.7v24.2c0-5.9-4.8-10.7-10.7-10.7h-58c-5.9 0-10.7 4.8-10.7 10.7v-24.2c0-5.9 4.8-10.7 10.7-10.7h58C402.3 290 407.1 294.8 407.1 300.7zM184.3 192.1v24.1c0-5.8-4.8-10.7-10.7-10.7h-58c-5.9 0-10.7 4.9-10.7 10.7v-24.1c0-5.9 4.8-10.7 10.7-10.7h58C179.5 181.5 184.3 186.3 184.3 192.1zM295.7 192.1v24.1c0-5.8-4.8-10.7-10.7-10.7H227c-5.9 0-10.7 4.9-10.7 10.7v-24.1c0-5.9 4.8-10.7 10.7-10.7H285C290.9 181.5 295.7 186.3 295.7 192.1zM295.7 300.7v24.2c0-5.9-4.8-10.7-10.7-10.7H227c-5.9 0-10.7 4.8-10.7 10.7v-24.2c0-5.9 4.8-10.7 10.7-10.7H285C290.9 290 295.7 294.8 295.7 300.7z" opacity=".4"></path><path d="M184.3 440.1v24.2c0 5.8-4.8 10.7-10.7 10.7h-58c-5.9 0-10.7-4.9-10.7-10.7v-24.2c0 5.9 4.8 10.7 10.7 10.7h58C179.5 450.8 184.3 446 184.3 440.1zM184.3 331.6v24.2c0 5.9-4.8 10.7-10.7 10.7h-58c-5.9 0-10.7-4.8-10.7-10.7v-24.2c0 5.9 4.8 10.7 10.7 10.7h58C179.5 342.2 184.3 337.4 184.3 331.6zM295.7 440.1v24.2c0 5.8-4.8 10.7-10.7 10.7H227c-5.9 0-10.7-4.9-10.7-10.7v-24.2c0 5.9 4.8 10.7 10.7 10.7H285C290.9 450.8 295.7 446 295.7 440.1zM407.1 223.1v24.2c0 5.9-4.8 10.7-10.7 10.7h-58c-5.9 0-10.7-4.8-10.7-10.7v-24.2c0 5.9 4.8 10.7 10.7 10.7h58C402.3 233.7 407.1 228.9 407.1 223.1zM407.1 440.1v24.2c0 5.8-4.8 10.7-10.7 10.7h-58c-5.9 0-10.7-4.9-10.7-10.7v-24.2c0 5.9 4.8 10.7 10.7 10.7h58C402.3 450.8 407.1 446 407.1 440.1zM184.3 223.1v24.2c0 5.9-4.8 10.7-10.7 10.7h-58c-5.9 0-10.7-4.8-10.7-10.7v-24.2c0 5.9 4.8 10.7 10.7 10.7h58C179.5 233.7 184.3 228.9 184.3 223.1zM295.7 223.1v24.2c0 5.9-4.8 10.7-10.7 10.7H227c-5.9 0-10.7-4.8-10.7-10.7v-24.2c0 5.9 4.8 10.7 10.7 10.7H285C290.9 233.7 295.7 228.9 295.7 223.1zM295.7 331.6v24.2c0 5.9-4.8 10.7-10.7 10.7H227c-5.9 0-10.7-4.8-10.7-10.7v-24.2c0 5.9 4.8 10.7 10.7 10.7H285C290.9 342.2 295.7 337.4 295.7 331.6z" opacity=".1"></path><path fill="#333" d="M173.6 480h-58c-8.6 0-15.7-7-15.7-15.7v-55.1c0-8.6 7-15.7 15.7-15.7h58c8.6 0 15.7 7 15.7 15.7v55.1C189.3 472.9 182.2 480 173.6 480zM115.6 403.5c-3.1 0-5.7 2.5-5.7 5.7v55.1c0 3.1 2.5 5.7 5.7 5.7h58c3.1 0 5.7-2.5 5.7-5.7v-55.1c0-3.1-2.5-5.7-5.7-5.7H115.6zM173.6 371.4h-58c-8.6 0-15.7-7-15.7-15.7v-55.1c0-8.6 7-15.7 15.7-15.7h58c8.6 0 15.7 7 15.7 15.7v55.1C189.3 364.4 182.2 371.4 173.6 371.4zM115.6 295c-3.1 0-5.7 2.5-5.7 5.7v55.1c0 3.1 2.5 5.7 5.7 5.7h58c3.1 0 5.7-2.5 5.7-5.7v-55.1c0-3.1-2.5-5.7-5.7-5.7H115.6zM285 480H227c-8.6 0-15.7-7-15.7-15.7v-55.1c0-8.6 7-15.7 15.7-15.7H285c8.6 0 15.7 7 15.7 15.7v55.1C300.7 472.9 293.7 480 285 480zM227 403.5c-3.1 0-5.7 2.5-5.7 5.7v55.1c0 3.1 2.5 5.7 5.7 5.7h58c3.1 0 5.7-2.5 5.7-5.7v-55.1c0-3.1-2.5-5.7-5.7-5.7H227zM396.4 262.9h-58c-8.6 0-15.7-7-15.7-15.7v-55.1c0-8.6 7-15.7 15.7-15.7h58c8.6 0 15.7 7 15.7 15.7v55.1C412.1 255.9 405.1 262.9 396.4 262.9zM338.4 186.4c-3.1 0-5.7 2.5-5.7 5.7v55.1c0 3.1 2.5 5.7 5.7 5.7h58c3.1 0 5.7-2.5 5.7-5.7v-55.1c0-3.1-2.5-5.7-5.7-5.7L338.4 186.4 338.4 186.4zM396.4 480h-58c-8.6 0-15.7-7-15.7-15.7V300.6c0-8.6 7-15.7 15.7-15.7h58c8.6 0 15.7 7 15.7 15.7v163.6C412.1 472.9 405.1 480 396.4 480zM338.4 295c-3.1 0-5.7 2.5-5.7 5.7v163.6c0 3.1 2.5 5.7 5.7 5.7h58c3.1 0 5.7-2.5 5.7-5.7V300.6c0-3.1-2.5-5.7-5.7-5.7H338.4zM173.6 262.9h-58c-8.6 0-15.7-7-15.7-15.7v-55.1c0-8.6 7-15.7 15.7-15.7h58c8.6 0 15.7 7 15.7 15.7v55.1C189.3 255.9 182.2 262.9 173.6 262.9zM115.6 186.4c-3.1 0-5.7 2.5-5.7 5.7v55.1c0 3.1 2.5 5.7 5.7 5.7h58c3.1 0 5.7-2.5 5.7-5.7v-55.1c0-3.1-2.5-5.7-5.7-5.7L115.6 186.4 115.6 186.4zM285 262.9H227c-8.6 0-15.7-7-15.7-15.7v-55.1c0-8.6 7-15.7 15.7-15.7H285c8.6 0 15.7 7 15.7 15.7v55.1C300.7 255.9 293.7 262.9 285 262.9zM227 186.4c-3.1 0-5.7 2.5-5.7 5.7v55.1c0 3.1 2.5 5.7 5.7 5.7h58c3.1 0 5.7-2.5 5.7-5.7v-55.1c0-3.1-2.5-5.7-5.7-5.7L227 186.4 227 186.4zM285 371.4H227c-8.6 0-15.7-7-15.7-15.7v-55.1c0-8.6 7-15.7 15.7-15.7H285c8.6 0 15.7 7 15.7 15.7v55.1C300.7 364.4 293.7 371.4 285 371.4zM227 295c-3.1 0-5.7 2.5-5.7 5.7v55.1c0 3.1 2.5 5.7 5.7 5.7h58c3.1 0 5.7-2.5 5.7-5.7v-55.1c0-3.1-2.5-5.7-5.7-5.7H227z"></path></svg>