<svg xmlns="http://www.w3.org/2000/svg" width="25" height="25" id="mail"><path d="M12.5 0A12.5 12.5 0 0 0 0 12.5 12.5 12.5 0 0 0 12.5 25 12.5 12.5 0 0 0 25 12.5 12.5 12.5 0 0 0 12.5 0zM7 9h12v2h-1v-.418l-5.004 3.002L8 10.586V16h5v1H7V9zm1.967 1 4.03 2.418L17.026 10h-8.06zm9.03 0 .003.01V10h-.004zm2.294 1.006v.004c.229 0 .458.085.629.256l.82.82a.897.897 0 0 1 0 1.256l-.498.496-.365.367-4.19 4.19-3.117 1.039 1.04-3.12 4.197-4.18-.006-.009.863-.863a.883.883 0 0 1 .627-.256zm0 1.04-.428.429.668.658.424-.422-.664-.664zm-1.129 1.143-3.273 3.258.664.664 3.271-3.271-.662-.65zm-3.83 4.116-.182.543.543-.182-.361-.361z"></path></svg>